M48
;DRILL file {KiCad (2016-02-16 BZR 6568, Git 6c5f954)-product} date Sun 21 Feb 2016 12:11:23 PM EST
;FORMAT={-:-/ absolute / inch / decimal}
FMAT,2
INCH,TZ
T1C0.008
T2C0.040
T3C0.039
%
G90
G05
M72
T1
X3.86Y-3.315
X3.86Y-3.365
X3.975Y-3.265
X4.095Y-2.93
X4.145Y-3.125
X4.24Y-3.385
X4.24Y-3.41
X4.255Y-3.005
X4.3146Y-3.18
X4.3146Y-3.2154
X4.325Y-3.285
X4.34Y-3.11
X4.35Y-3.18
X4.35Y-3.2154
X4.365Y-3.11
X4.42Y-3.23
X4.465Y-3.12
X4.465Y-3.2076
X4.48Y-3.365
X4.495Y-3.3
X4.59Y-2.975
X4.62Y-2.975
X4.905Y-3.075
X4.975Y-3.385
X4.9995Y-3.0603
X5.015Y-3.125
X5.015Y-3.335
X5.095Y-3.17
X5.12Y-3.075
X5.12Y-3.28
X5.4Y-3.06
X5.4Y-3.18
X5.42Y-3.045
X5.44Y-3.06
X5.47Y-3.145
X5.47Y-3.215
T2
X3.92Y-2.95
X3.92Y-3.05
X3.92Y-3.15
T3
X3.88Y-3.215
X3.92Y-3.415
X3.96Y-3.215
T0
M30
