G04 #@! TF.FileFunction,Legend,Top*
%FSLAX46Y46*%
G04 Gerber Fmt 4.6, Leading zero omitted, Abs format (unit mm)*
G04 Created by KiCad (PCBNEW (2016-02-16 BZR 6568, Git 6c5f954)-product) date Sun 21 Feb 2016 12:11:03 PM EST*
%MOMM*%
G01*
G04 APERTURE LIST*
%ADD10C,0.100000*%
%ADD11C,0.190500*%
%ADD12C,0.150000*%
%ADD13C,0.127000*%
%ADD14R,0.500800X0.310800*%
%ADD15R,0.550800X0.650800*%
%ADD16R,1.150800X1.150800*%
%ADD17R,1.300800X1.050800*%
%ADD18R,0.650800X0.550800*%
%ADD19C,0.837800*%
%ADD20C,1.250800*%
%ADD21R,0.650800X0.450800*%
%ADD22R,0.450800X0.650800*%
%ADD23O,0.350800X0.800800*%
%ADD24O,0.800800X0.350800*%
%ADD25R,0.950800X0.950800*%
%ADD26R,0.558800X0.355600*%
%ADD27R,0.650800X0.650800*%
%ADD28R,0.650800X1.250800*%
%ADD29R,1.250800X0.650800*%
%ADD30R,1.950800X1.150800*%
%ADD31R,2.082800X1.778000*%
%ADD32O,2.082800X1.778000*%
G04 APERTURE END LIST*
D10*
D11*
X102422779Y-85906428D02*
X102459064Y-85797571D01*
X102459064Y-85616142D01*
X102422779Y-85543571D01*
X102386493Y-85507285D01*
X102313921Y-85471000D01*
X102241350Y-85471000D01*
X102168779Y-85507285D01*
X102132493Y-85543571D01*
X102096207Y-85616142D01*
X102059921Y-85761285D01*
X102023636Y-85833857D01*
X101987350Y-85870142D01*
X101914779Y-85906428D01*
X101842207Y-85906428D01*
X101769636Y-85870142D01*
X101733350Y-85833857D01*
X101697064Y-85761285D01*
X101697064Y-85579857D01*
X101733350Y-85471000D01*
X102459064Y-85035571D02*
X102422779Y-85108143D01*
X102350207Y-85144428D01*
X101697064Y-85144428D01*
X102459064Y-84636428D02*
X102422779Y-84709000D01*
X102386493Y-84745285D01*
X102313921Y-84781571D01*
X102096207Y-84781571D01*
X102023636Y-84745285D01*
X101987350Y-84709000D01*
X101951064Y-84636428D01*
X101951064Y-84527571D01*
X101987350Y-84455000D01*
X102023636Y-84418714D01*
X102096207Y-84382428D01*
X102313921Y-84382428D01*
X102386493Y-84418714D01*
X102422779Y-84455000D01*
X102459064Y-84527571D01*
X102459064Y-84636428D01*
X101697064Y-84164714D02*
X101697064Y-83729285D01*
X102459064Y-83946999D02*
X101697064Y-83946999D01*
X102459064Y-83148714D02*
X102059921Y-83148714D01*
X101987350Y-83185000D01*
X101951064Y-83257571D01*
X101951064Y-83402714D01*
X101987350Y-83475285D01*
X102422779Y-83148714D02*
X102459064Y-83221285D01*
X102459064Y-83402714D01*
X102422779Y-83475285D01*
X102350207Y-83511571D01*
X102277636Y-83511571D01*
X102205064Y-83475285D01*
X102168779Y-83402714D01*
X102168779Y-83221285D01*
X102132493Y-83148714D01*
X101951064Y-82459285D02*
X102567921Y-82459285D01*
X102640493Y-82495571D01*
X102676779Y-82531856D01*
X102713064Y-82604428D01*
X102713064Y-82713285D01*
X102676779Y-82785856D01*
X102422779Y-82459285D02*
X102459064Y-82531856D01*
X102459064Y-82676999D01*
X102422779Y-82749571D01*
X102386493Y-82785856D01*
X102313921Y-82822142D01*
X102096207Y-82822142D01*
X102023636Y-82785856D01*
X101987350Y-82749571D01*
X101951064Y-82676999D01*
X101951064Y-82531856D01*
X101987350Y-82459285D01*
X101951064Y-81588428D02*
X102459064Y-81406999D01*
X101951064Y-81225571D01*
X101697064Y-80790143D02*
X101697064Y-80717571D01*
X101733350Y-80645000D01*
X101769636Y-80608714D01*
X101842207Y-80572428D01*
X101987350Y-80536143D01*
X102168779Y-80536143D01*
X102313921Y-80572428D01*
X102386493Y-80608714D01*
X102422779Y-80645000D01*
X102459064Y-80717571D01*
X102459064Y-80790143D01*
X102422779Y-80862714D01*
X102386493Y-80899000D01*
X102313921Y-80935285D01*
X102168779Y-80971571D01*
X101987350Y-80971571D01*
X101842207Y-80935285D01*
X101769636Y-80899000D01*
X101733350Y-80862714D01*
X101697064Y-80790143D01*
X102386493Y-80209571D02*
X102422779Y-80173286D01*
X102459064Y-80209571D01*
X102422779Y-80245857D01*
X102386493Y-80209571D01*
X102459064Y-80209571D01*
X102459064Y-79447572D02*
X102459064Y-79883000D01*
X102459064Y-79665286D02*
X101697064Y-79665286D01*
X101805921Y-79737857D01*
X101878493Y-79810429D01*
X101914779Y-79883000D01*
X103317221Y-85779428D02*
X103353507Y-85670571D01*
X103389793Y-85634286D01*
X103462364Y-85598000D01*
X103571221Y-85598000D01*
X103643793Y-85634286D01*
X103680079Y-85670571D01*
X103716364Y-85743143D01*
X103716364Y-86033428D01*
X102954364Y-86033428D01*
X102954364Y-85779428D01*
X102990650Y-85706857D01*
X103026936Y-85670571D01*
X103099507Y-85634286D01*
X103172079Y-85634286D01*
X103244650Y-85670571D01*
X103280936Y-85706857D01*
X103317221Y-85779428D01*
X103317221Y-86033428D01*
X103680079Y-84981143D02*
X103716364Y-85053714D01*
X103716364Y-85198857D01*
X103680079Y-85271428D01*
X103607507Y-85307714D01*
X103317221Y-85307714D01*
X103244650Y-85271428D01*
X103208364Y-85198857D01*
X103208364Y-85053714D01*
X103244650Y-84981143D01*
X103317221Y-84944857D01*
X103389793Y-84944857D01*
X103462364Y-85307714D01*
X103208364Y-84618285D02*
X103716364Y-84618285D01*
X103280936Y-84618285D02*
X103244650Y-84582000D01*
X103208364Y-84509428D01*
X103208364Y-84400571D01*
X103244650Y-84328000D01*
X103317221Y-84291714D01*
X103716364Y-84291714D01*
X103716364Y-83348285D02*
X102954364Y-83348285D01*
X103716364Y-82912857D02*
X103280936Y-83239428D01*
X102954364Y-82912857D02*
X103389793Y-83348285D01*
X103680079Y-82296000D02*
X103716364Y-82368571D01*
X103716364Y-82513714D01*
X103680079Y-82586285D01*
X103607507Y-82622571D01*
X103317221Y-82622571D01*
X103244650Y-82586285D01*
X103208364Y-82513714D01*
X103208364Y-82368571D01*
X103244650Y-82296000D01*
X103317221Y-82259714D01*
X103389793Y-82259714D01*
X103462364Y-82622571D01*
X103716364Y-81933142D02*
X103208364Y-81933142D01*
X103280936Y-81933142D02*
X103244650Y-81896857D01*
X103208364Y-81824285D01*
X103208364Y-81715428D01*
X103244650Y-81642857D01*
X103317221Y-81606571D01*
X103716364Y-81606571D01*
X103317221Y-81606571D02*
X103244650Y-81570285D01*
X103208364Y-81497714D01*
X103208364Y-81388857D01*
X103244650Y-81316285D01*
X103317221Y-81280000D01*
X103716364Y-81280000D01*
X103208364Y-80917142D02*
X103970364Y-80917142D01*
X103244650Y-80917142D02*
X103208364Y-80844571D01*
X103208364Y-80699428D01*
X103244650Y-80626857D01*
X103280936Y-80590571D01*
X103353507Y-80554285D01*
X103571221Y-80554285D01*
X103643793Y-80590571D01*
X103680079Y-80626857D01*
X103716364Y-80699428D01*
X103716364Y-80844571D01*
X103680079Y-80917142D01*
X103716364Y-80227713D02*
X102954364Y-80227713D01*
X103426079Y-80155142D02*
X103716364Y-79937428D01*
X103208364Y-79937428D02*
X103498650Y-80227713D01*
X103680079Y-79320571D02*
X103716364Y-79393142D01*
X103716364Y-79538285D01*
X103680079Y-79610856D01*
X103607507Y-79647142D01*
X103317221Y-79647142D01*
X103244650Y-79610856D01*
X103208364Y-79538285D01*
X103208364Y-79393142D01*
X103244650Y-79320571D01*
X103317221Y-79284285D01*
X103389793Y-79284285D01*
X103462364Y-79647142D01*
D12*
X136976000Y-80172000D02*
G75*
G03X136976000Y-80172000I-100000J0D01*
G01*
X138143000Y-78609000D02*
X138143000Y-78109000D01*
X137193000Y-78109000D02*
X137193000Y-78609000D01*
X141173200Y-84772000D02*
X141173200Y-83372000D01*
X149173200Y-84772000D02*
X141173200Y-84772000D01*
X149173200Y-83372000D02*
X149173200Y-84772000D01*
X149173200Y-76772000D02*
X149173200Y-78172000D01*
X141173200Y-76772000D02*
X149173200Y-76772000D01*
X141173200Y-78172000D02*
X141173200Y-76772000D01*
X102147000Y-74938000D02*
X102147000Y-75938000D01*
X103847000Y-75938000D02*
X103847000Y-74938000D01*
X106176000Y-79850000D02*
X106676000Y-79850000D01*
X106676000Y-78900000D02*
X106176000Y-78900000D01*
X128774000Y-84234000D02*
X128274000Y-84234000D01*
X128274000Y-85184000D02*
X128774000Y-85184000D01*
X128774000Y-78900000D02*
X128274000Y-78900000D01*
X128274000Y-79850000D02*
X128774000Y-79850000D01*
X107552000Y-75188000D02*
X107552000Y-75688000D01*
X108602000Y-75688000D02*
X108602000Y-75188000D01*
X108602000Y-77593000D02*
X108602000Y-77093000D01*
X107552000Y-77093000D02*
X107552000Y-77593000D01*
X113936000Y-78482000D02*
X113936000Y-77982000D01*
X112886000Y-77982000D02*
X112886000Y-78482000D01*
X109745000Y-75688000D02*
X109745000Y-75188000D01*
X108695000Y-75188000D02*
X108695000Y-75688000D01*
X112666000Y-78482000D02*
X112666000Y-77982000D01*
X111616000Y-77982000D02*
X111616000Y-78482000D01*
X108695000Y-77093000D02*
X108695000Y-77593000D01*
X109745000Y-77593000D02*
X109745000Y-77093000D01*
X126890000Y-85340000D02*
X126890000Y-84840000D01*
X125840000Y-84840000D02*
X125840000Y-85340000D01*
X128774000Y-79993000D02*
X128274000Y-79993000D01*
X128274000Y-81043000D02*
X128774000Y-81043000D01*
X128274000Y-75709000D02*
X128774000Y-75709000D01*
X128774000Y-74659000D02*
X128274000Y-74659000D01*
X126742000Y-78850000D02*
X126242000Y-78850000D01*
X126242000Y-79900000D02*
X126742000Y-79900000D01*
X108415000Y-79597000D02*
X108915000Y-79597000D01*
X111665000Y-82847000D02*
X111165000Y-82847000D01*
X111665000Y-79597000D02*
X111165000Y-79597000D01*
X108415000Y-82847000D02*
X108415000Y-82347000D01*
X111665000Y-82847000D02*
X111665000Y-82347000D01*
X111665000Y-79597000D02*
X111665000Y-80097000D01*
X108415000Y-79597000D02*
X108415000Y-80097000D01*
X109855000Y-86995000D02*
X109855000Y-84963000D01*
X109855000Y-84963000D02*
X108585000Y-84963000D01*
X108585000Y-84963000D02*
X108585000Y-86995000D01*
X108585000Y-86995000D02*
X109855000Y-86995000D01*
X126824000Y-81550000D02*
G75*
G03X126824000Y-81550000I-100000J0D01*
G01*
X128824000Y-81550000D02*
X128224000Y-81550000D01*
X128224000Y-83650000D02*
X128824000Y-83650000D01*
X115755000Y-84524000D02*
X116055000Y-84524000D01*
X115755000Y-77274000D02*
X116055000Y-77274000D01*
X123005000Y-77274000D02*
X122705000Y-77274000D01*
X123005000Y-84524000D02*
X122705000Y-84524000D01*
X115755000Y-84524000D02*
X115755000Y-84224000D01*
X123005000Y-84524000D02*
X123005000Y-84224000D01*
X123005000Y-77274000D02*
X123005000Y-77574000D01*
X115755000Y-77274000D02*
X115755000Y-77574000D01*
X116055000Y-84524000D02*
X116055000Y-85749000D01*
X126824000Y-76343000D02*
G75*
G03X126824000Y-76343000I-100000J0D01*
G01*
X128824000Y-76343000D02*
X128224000Y-76343000D01*
X128224000Y-78443000D02*
X128824000Y-78443000D01*
X105045000Y-83050000D02*
X105045000Y-82050000D01*
X107045000Y-82050000D02*
X107045000Y-83050000D01*
X111616000Y-84840000D02*
X111616000Y-85340000D01*
X112666000Y-85340000D02*
X112666000Y-84840000D01*
X112759000Y-84840000D02*
X112759000Y-85340000D01*
X113809000Y-85340000D02*
X113809000Y-84840000D01*
X98298000Y-76200000D02*
X98298000Y-81280000D01*
X98298000Y-81280000D02*
X100838000Y-81280000D01*
X100838000Y-81280000D02*
X100838000Y-76200000D01*
X101118000Y-73380000D02*
X101118000Y-74930000D01*
X100838000Y-76200000D02*
X98298000Y-76200000D01*
X98018000Y-74930000D02*
X98018000Y-73380000D01*
X98018000Y-73380000D02*
X101118000Y-73380000D01*
D13*
X135756952Y-80493810D02*
X135756952Y-80905048D01*
X135781143Y-80953429D01*
X135805333Y-80977619D01*
X135853714Y-81001810D01*
X135950476Y-81001810D01*
X135998857Y-80977619D01*
X136023048Y-80953429D01*
X136047238Y-80905048D01*
X136047238Y-80493810D01*
X136240761Y-80493810D02*
X136555238Y-80493810D01*
X136385904Y-80687333D01*
X136458476Y-80687333D01*
X136506857Y-80711524D01*
X136531047Y-80735714D01*
X136555238Y-80784095D01*
X136555238Y-80905048D01*
X136531047Y-80953429D01*
X136506857Y-80977619D01*
X136458476Y-81001810D01*
X136313333Y-81001810D01*
X136264952Y-80977619D01*
X136240761Y-80953429D01*
X138992429Y-78443667D02*
X139016619Y-78467857D01*
X139040810Y-78540429D01*
X139040810Y-78588810D01*
X139016619Y-78661381D01*
X138968238Y-78709762D01*
X138919857Y-78733953D01*
X138823095Y-78758143D01*
X138750524Y-78758143D01*
X138653762Y-78733953D01*
X138605381Y-78709762D01*
X138557000Y-78661381D01*
X138532810Y-78588810D01*
X138532810Y-78540429D01*
X138557000Y-78467857D01*
X138581190Y-78443667D01*
X138532810Y-78274334D02*
X138532810Y-77959857D01*
X138726333Y-78129191D01*
X138726333Y-78056619D01*
X138750524Y-78008238D01*
X138774714Y-77984048D01*
X138823095Y-77959857D01*
X138944048Y-77959857D01*
X138992429Y-77984048D01*
X139016619Y-78008238D01*
X139040810Y-78056619D01*
X139040810Y-78201762D01*
X139016619Y-78250143D01*
X138992429Y-78274334D01*
X104575429Y-75522667D02*
X104599619Y-75546857D01*
X104623810Y-75619429D01*
X104623810Y-75667810D01*
X104599619Y-75740381D01*
X104551238Y-75788762D01*
X104502857Y-75812953D01*
X104406095Y-75837143D01*
X104333524Y-75837143D01*
X104236762Y-75812953D01*
X104188381Y-75788762D01*
X104140000Y-75740381D01*
X104115810Y-75667810D01*
X104115810Y-75619429D01*
X104140000Y-75546857D01*
X104164190Y-75522667D01*
X104164190Y-75329143D02*
X104140000Y-75304953D01*
X104115810Y-75256572D01*
X104115810Y-75135619D01*
X104140000Y-75087238D01*
X104164190Y-75063048D01*
X104212571Y-75038857D01*
X104260952Y-75038857D01*
X104333524Y-75063048D01*
X104623810Y-75353334D01*
X104623810Y-75038857D01*
X106341333Y-78540429D02*
X106317143Y-78564619D01*
X106244571Y-78588810D01*
X106196190Y-78588810D01*
X106123619Y-78564619D01*
X106075238Y-78516238D01*
X106051047Y-78467857D01*
X106026857Y-78371095D01*
X106026857Y-78298524D01*
X106051047Y-78201762D01*
X106075238Y-78153381D01*
X106123619Y-78105000D01*
X106196190Y-78080810D01*
X106244571Y-78080810D01*
X106317143Y-78105000D01*
X106341333Y-78129190D01*
X106776762Y-78250143D02*
X106776762Y-78588810D01*
X106655809Y-78056619D02*
X106534857Y-78419476D01*
X106849333Y-78419476D01*
X129963333Y-84890429D02*
X129939143Y-84914619D01*
X129866571Y-84938810D01*
X129818190Y-84938810D01*
X129745619Y-84914619D01*
X129697238Y-84866238D01*
X129673047Y-84817857D01*
X129648857Y-84721095D01*
X129648857Y-84648524D01*
X129673047Y-84551762D01*
X129697238Y-84503381D01*
X129745619Y-84455000D01*
X129818190Y-84430810D01*
X129866571Y-84430810D01*
X129939143Y-84455000D01*
X129963333Y-84479190D01*
X130398762Y-84430810D02*
X130302000Y-84430810D01*
X130253619Y-84455000D01*
X130229428Y-84479190D01*
X130181047Y-84551762D01*
X130156857Y-84648524D01*
X130156857Y-84842048D01*
X130181047Y-84890429D01*
X130205238Y-84914619D01*
X130253619Y-84938810D01*
X130350381Y-84938810D01*
X130398762Y-84914619D01*
X130422952Y-84890429D01*
X130447143Y-84842048D01*
X130447143Y-84721095D01*
X130422952Y-84672714D01*
X130398762Y-84648524D01*
X130350381Y-84624333D01*
X130253619Y-84624333D01*
X130205238Y-84648524D01*
X130181047Y-84672714D01*
X130156857Y-84721095D01*
X129963333Y-79556429D02*
X129939143Y-79580619D01*
X129866571Y-79604810D01*
X129818190Y-79604810D01*
X129745619Y-79580619D01*
X129697238Y-79532238D01*
X129673047Y-79483857D01*
X129648857Y-79387095D01*
X129648857Y-79314524D01*
X129673047Y-79217762D01*
X129697238Y-79169381D01*
X129745619Y-79121000D01*
X129818190Y-79096810D01*
X129866571Y-79096810D01*
X129939143Y-79121000D01*
X129963333Y-79145190D01*
X130132666Y-79096810D02*
X130471333Y-79096810D01*
X130253619Y-79604810D01*
X107290810Y-75522667D02*
X107048905Y-75692000D01*
X107290810Y-75812953D02*
X106782810Y-75812953D01*
X106782810Y-75619429D01*
X106807000Y-75571048D01*
X106831190Y-75546857D01*
X106879571Y-75522667D01*
X106952143Y-75522667D01*
X107000524Y-75546857D01*
X107024714Y-75571048D01*
X107048905Y-75619429D01*
X107048905Y-75812953D01*
X107290810Y-75038857D02*
X107290810Y-75329143D01*
X107290810Y-75184000D02*
X106782810Y-75184000D01*
X106855381Y-75232381D01*
X106903762Y-75280762D01*
X106927952Y-75329143D01*
X107290810Y-77427667D02*
X107048905Y-77597000D01*
X107290810Y-77717953D02*
X106782810Y-77717953D01*
X106782810Y-77524429D01*
X106807000Y-77476048D01*
X106831190Y-77451857D01*
X106879571Y-77427667D01*
X106952143Y-77427667D01*
X107000524Y-77451857D01*
X107024714Y-77476048D01*
X107048905Y-77524429D01*
X107048905Y-77717953D01*
X106831190Y-77234143D02*
X106807000Y-77209953D01*
X106782810Y-77161572D01*
X106782810Y-77040619D01*
X106807000Y-76992238D01*
X106831190Y-76968048D01*
X106879571Y-76943857D01*
X106927952Y-76943857D01*
X107000524Y-76968048D01*
X107290810Y-77258334D01*
X107290810Y-76943857D01*
X113640810Y-76919667D02*
X113398905Y-77089000D01*
X113640810Y-77209953D02*
X113132810Y-77209953D01*
X113132810Y-77016429D01*
X113157000Y-76968048D01*
X113181190Y-76943857D01*
X113229571Y-76919667D01*
X113302143Y-76919667D01*
X113350524Y-76943857D01*
X113374714Y-76968048D01*
X113398905Y-77016429D01*
X113398905Y-77209953D01*
X113132810Y-76750334D02*
X113132810Y-76435857D01*
X113326333Y-76605191D01*
X113326333Y-76532619D01*
X113350524Y-76484238D01*
X113374714Y-76460048D01*
X113423095Y-76435857D01*
X113544048Y-76435857D01*
X113592429Y-76460048D01*
X113616619Y-76484238D01*
X113640810Y-76532619D01*
X113640810Y-76677762D01*
X113616619Y-76726143D01*
X113592429Y-76750334D01*
X110465810Y-75522667D02*
X110223905Y-75692000D01*
X110465810Y-75812953D02*
X109957810Y-75812953D01*
X109957810Y-75619429D01*
X109982000Y-75571048D01*
X110006190Y-75546857D01*
X110054571Y-75522667D01*
X110127143Y-75522667D01*
X110175524Y-75546857D01*
X110199714Y-75571048D01*
X110223905Y-75619429D01*
X110223905Y-75812953D01*
X110127143Y-75087238D02*
X110465810Y-75087238D01*
X109933619Y-75208191D02*
X110296476Y-75329143D01*
X110296476Y-75014667D01*
X112370810Y-76919667D02*
X112128905Y-77089000D01*
X112370810Y-77209953D02*
X111862810Y-77209953D01*
X111862810Y-77016429D01*
X111887000Y-76968048D01*
X111911190Y-76943857D01*
X111959571Y-76919667D01*
X112032143Y-76919667D01*
X112080524Y-76943857D01*
X112104714Y-76968048D01*
X112128905Y-77016429D01*
X112128905Y-77209953D01*
X111862810Y-76460048D02*
X111862810Y-76701953D01*
X112104714Y-76726143D01*
X112080524Y-76701953D01*
X112056333Y-76653572D01*
X112056333Y-76532619D01*
X112080524Y-76484238D01*
X112104714Y-76460048D01*
X112153095Y-76435857D01*
X112274048Y-76435857D01*
X112322429Y-76460048D01*
X112346619Y-76484238D01*
X112370810Y-76532619D01*
X112370810Y-76653572D01*
X112346619Y-76701953D01*
X112322429Y-76726143D01*
X110465810Y-77427667D02*
X110223905Y-77597000D01*
X110465810Y-77717953D02*
X109957810Y-77717953D01*
X109957810Y-77524429D01*
X109982000Y-77476048D01*
X110006190Y-77451857D01*
X110054571Y-77427667D01*
X110127143Y-77427667D01*
X110175524Y-77451857D01*
X110199714Y-77476048D01*
X110223905Y-77524429D01*
X110223905Y-77717953D01*
X109957810Y-76992238D02*
X109957810Y-77089000D01*
X109982000Y-77137381D01*
X110006190Y-77161572D01*
X110078762Y-77209953D01*
X110175524Y-77234143D01*
X110369048Y-77234143D01*
X110417429Y-77209953D01*
X110441619Y-77185762D01*
X110465810Y-77137381D01*
X110465810Y-77040619D01*
X110441619Y-76992238D01*
X110417429Y-76968048D01*
X110369048Y-76943857D01*
X110248095Y-76943857D01*
X110199714Y-76968048D01*
X110175524Y-76992238D01*
X110151333Y-77040619D01*
X110151333Y-77137381D01*
X110175524Y-77185762D01*
X110199714Y-77209953D01*
X110248095Y-77234143D01*
X126280333Y-86462810D02*
X126111000Y-86220905D01*
X125990047Y-86462810D02*
X125990047Y-85954810D01*
X126183571Y-85954810D01*
X126231952Y-85979000D01*
X126256143Y-86003190D01*
X126280333Y-86051571D01*
X126280333Y-86124143D01*
X126256143Y-86172524D01*
X126231952Y-86196714D01*
X126183571Y-86220905D01*
X125990047Y-86220905D01*
X126449666Y-85954810D02*
X126788333Y-85954810D01*
X126570619Y-86462810D01*
X129963333Y-80747810D02*
X129794000Y-80505905D01*
X129673047Y-80747810D02*
X129673047Y-80239810D01*
X129866571Y-80239810D01*
X129914952Y-80264000D01*
X129939143Y-80288190D01*
X129963333Y-80336571D01*
X129963333Y-80409143D01*
X129939143Y-80457524D01*
X129914952Y-80481714D01*
X129866571Y-80505905D01*
X129673047Y-80505905D01*
X130253619Y-80457524D02*
X130205238Y-80433333D01*
X130181047Y-80409143D01*
X130156857Y-80360762D01*
X130156857Y-80336571D01*
X130181047Y-80288190D01*
X130205238Y-80264000D01*
X130253619Y-80239810D01*
X130350381Y-80239810D01*
X130398762Y-80264000D01*
X130422952Y-80288190D01*
X130447143Y-80336571D01*
X130447143Y-80360762D01*
X130422952Y-80409143D01*
X130398762Y-80433333D01*
X130350381Y-80457524D01*
X130253619Y-80457524D01*
X130205238Y-80481714D01*
X130181047Y-80505905D01*
X130156857Y-80554286D01*
X130156857Y-80651048D01*
X130181047Y-80699429D01*
X130205238Y-80723619D01*
X130253619Y-80747810D01*
X130350381Y-80747810D01*
X130398762Y-80723619D01*
X130422952Y-80699429D01*
X130447143Y-80651048D01*
X130447143Y-80554286D01*
X130422952Y-80505905D01*
X130398762Y-80481714D01*
X130350381Y-80457524D01*
X129709333Y-75413810D02*
X129540000Y-75171905D01*
X129419047Y-75413810D02*
X129419047Y-74905810D01*
X129612571Y-74905810D01*
X129660952Y-74930000D01*
X129685143Y-74954190D01*
X129709333Y-75002571D01*
X129709333Y-75075143D01*
X129685143Y-75123524D01*
X129660952Y-75147714D01*
X129612571Y-75171905D01*
X129419047Y-75171905D01*
X129951238Y-75413810D02*
X130048000Y-75413810D01*
X130096381Y-75389619D01*
X130120571Y-75365429D01*
X130168952Y-75292857D01*
X130193143Y-75196095D01*
X130193143Y-75002571D01*
X130168952Y-74954190D01*
X130144762Y-74930000D01*
X130096381Y-74905810D01*
X129999619Y-74905810D01*
X129951238Y-74930000D01*
X129927047Y-74954190D01*
X129902857Y-75002571D01*
X129902857Y-75123524D01*
X129927047Y-75171905D01*
X129951238Y-75196095D01*
X129999619Y-75220286D01*
X130096381Y-75220286D01*
X130144762Y-75196095D01*
X130168952Y-75171905D01*
X130193143Y-75123524D01*
X126165428Y-78588810D02*
X125996095Y-78346905D01*
X125875142Y-78588810D02*
X125875142Y-78080810D01*
X126068666Y-78080810D01*
X126117047Y-78105000D01*
X126141238Y-78129190D01*
X126165428Y-78177571D01*
X126165428Y-78250143D01*
X126141238Y-78298524D01*
X126117047Y-78322714D01*
X126068666Y-78346905D01*
X125875142Y-78346905D01*
X126649238Y-78588810D02*
X126358952Y-78588810D01*
X126504095Y-78588810D02*
X126504095Y-78080810D01*
X126455714Y-78153381D01*
X126407333Y-78201762D01*
X126358952Y-78225952D01*
X126963714Y-78080810D02*
X127012095Y-78080810D01*
X127060476Y-78105000D01*
X127084667Y-78129190D01*
X127108857Y-78177571D01*
X127133048Y-78274333D01*
X127133048Y-78395286D01*
X127108857Y-78492048D01*
X127084667Y-78540429D01*
X127060476Y-78564619D01*
X127012095Y-78588810D01*
X126963714Y-78588810D01*
X126915333Y-78564619D01*
X126891143Y-78540429D01*
X126866952Y-78492048D01*
X126842762Y-78395286D01*
X126842762Y-78274333D01*
X126866952Y-78177571D01*
X126891143Y-78129190D01*
X126915333Y-78105000D01*
X126963714Y-78080810D01*
X112243810Y-81609048D02*
X112655048Y-81609048D01*
X112703429Y-81584857D01*
X112727619Y-81560667D01*
X112751810Y-81512286D01*
X112751810Y-81415524D01*
X112727619Y-81367143D01*
X112703429Y-81342952D01*
X112655048Y-81318762D01*
X112243810Y-81318762D01*
X112292190Y-81101048D02*
X112268000Y-81076858D01*
X112243810Y-81028477D01*
X112243810Y-80907524D01*
X112268000Y-80859143D01*
X112292190Y-80834953D01*
X112340571Y-80810762D01*
X112388952Y-80810762D01*
X112461524Y-80834953D01*
X112751810Y-81125239D01*
X112751810Y-80810762D01*
X110592810Y-86366048D02*
X111004048Y-86366048D01*
X111052429Y-86341857D01*
X111076619Y-86317667D01*
X111100810Y-86269286D01*
X111100810Y-86172524D01*
X111076619Y-86124143D01*
X111052429Y-86099952D01*
X111004048Y-86075762D01*
X110592810Y-86075762D01*
X110762143Y-85616143D02*
X111100810Y-85616143D01*
X110568619Y-85737096D02*
X110931476Y-85858048D01*
X110931476Y-85543572D01*
X129914952Y-82271810D02*
X129914952Y-82683048D01*
X129939143Y-82731429D01*
X129963333Y-82755619D01*
X130011714Y-82779810D01*
X130108476Y-82779810D01*
X130156857Y-82755619D01*
X130181048Y-82731429D01*
X130205238Y-82683048D01*
X130205238Y-82271810D01*
X130689047Y-82271810D02*
X130447142Y-82271810D01*
X130422952Y-82513714D01*
X130447142Y-82489524D01*
X130495523Y-82465333D01*
X130616476Y-82465333D01*
X130664857Y-82489524D01*
X130689047Y-82513714D01*
X130713238Y-82562095D01*
X130713238Y-82683048D01*
X130689047Y-82731429D01*
X130664857Y-82755619D01*
X130616476Y-82779810D01*
X130495523Y-82779810D01*
X130447142Y-82755619D01*
X130422952Y-82731429D01*
X123310952Y-76810810D02*
X123310952Y-77222048D01*
X123335143Y-77270429D01*
X123359333Y-77294619D01*
X123407714Y-77318810D01*
X123504476Y-77318810D01*
X123552857Y-77294619D01*
X123577048Y-77270429D01*
X123601238Y-77222048D01*
X123601238Y-76810810D01*
X124060857Y-76810810D02*
X123964095Y-76810810D01*
X123915714Y-76835000D01*
X123891523Y-76859190D01*
X123843142Y-76931762D01*
X123818952Y-77028524D01*
X123818952Y-77222048D01*
X123843142Y-77270429D01*
X123867333Y-77294619D01*
X123915714Y-77318810D01*
X124012476Y-77318810D01*
X124060857Y-77294619D01*
X124085047Y-77270429D01*
X124109238Y-77222048D01*
X124109238Y-77101095D01*
X124085047Y-77052714D01*
X124060857Y-77028524D01*
X124012476Y-77004333D01*
X123915714Y-77004333D01*
X123867333Y-77028524D01*
X123843142Y-77052714D01*
X123818952Y-77101095D01*
X129914952Y-77064810D02*
X129914952Y-77476048D01*
X129939143Y-77524429D01*
X129963333Y-77548619D01*
X130011714Y-77572810D01*
X130108476Y-77572810D01*
X130156857Y-77548619D01*
X130181048Y-77524429D01*
X130205238Y-77476048D01*
X130205238Y-77064810D01*
X130398761Y-77064810D02*
X130737428Y-77064810D01*
X130519714Y-77572810D01*
X104508905Y-82791905D02*
X104750810Y-82791905D01*
X104242810Y-82961238D02*
X104508905Y-82791905D01*
X104242810Y-82622571D01*
X104750810Y-82187142D02*
X104750810Y-82477428D01*
X104750810Y-82332285D02*
X104242810Y-82332285D01*
X104315381Y-82380666D01*
X104363762Y-82429047D01*
X104387952Y-82477428D01*
X112370810Y-86940572D02*
X112128905Y-87109905D01*
X112370810Y-87230858D02*
X111862810Y-87230858D01*
X111862810Y-87037334D01*
X111887000Y-86988953D01*
X111911190Y-86964762D01*
X111959571Y-86940572D01*
X112032143Y-86940572D01*
X112080524Y-86964762D01*
X112104714Y-86988953D01*
X112128905Y-87037334D01*
X112128905Y-87230858D01*
X112370810Y-86456762D02*
X112370810Y-86747048D01*
X112370810Y-86601905D02*
X111862810Y-86601905D01*
X111935381Y-86650286D01*
X111983762Y-86698667D01*
X112007952Y-86747048D01*
X112370810Y-85972952D02*
X112370810Y-86263238D01*
X112370810Y-86118095D02*
X111862810Y-86118095D01*
X111935381Y-86166476D01*
X111983762Y-86214857D01*
X112007952Y-86263238D01*
X113513810Y-86940572D02*
X113271905Y-87109905D01*
X113513810Y-87230858D02*
X113005810Y-87230858D01*
X113005810Y-87037334D01*
X113030000Y-86988953D01*
X113054190Y-86964762D01*
X113102571Y-86940572D01*
X113175143Y-86940572D01*
X113223524Y-86964762D01*
X113247714Y-86988953D01*
X113271905Y-87037334D01*
X113271905Y-87230858D01*
X113513810Y-86456762D02*
X113513810Y-86747048D01*
X113513810Y-86601905D02*
X113005810Y-86601905D01*
X113078381Y-86650286D01*
X113126762Y-86698667D01*
X113150952Y-86747048D01*
X113054190Y-86263238D02*
X113030000Y-86239048D01*
X113005810Y-86190667D01*
X113005810Y-86069714D01*
X113030000Y-86021333D01*
X113054190Y-85997143D01*
X113102571Y-85972952D01*
X113150952Y-85972952D01*
X113223524Y-85997143D01*
X113513810Y-86287429D01*
X113513810Y-85972952D01*
%LPC*%
D14*
X137626000Y-80292000D03*
X137626000Y-80772000D03*
X137626000Y-81252000D03*
X138726000Y-81252000D03*
X138726000Y-80772000D03*
X138726000Y-80292000D03*
D15*
X137668000Y-77809000D03*
X137668000Y-78909000D03*
D16*
X141173200Y-80772000D03*
X141173200Y-78972000D03*
X141173200Y-82572000D03*
X149073200Y-82572000D03*
X149073200Y-80772000D03*
X149073200Y-78972000D03*
D17*
X102997000Y-76438000D03*
X102997000Y-74438000D03*
D18*
X106976000Y-79375000D03*
X105876000Y-79375000D03*
X127974000Y-84709000D03*
X129074000Y-84709000D03*
X127974000Y-79375000D03*
X129074000Y-79375000D03*
D19*
X100203000Y-85471000D03*
X98933000Y-85471000D03*
X100203000Y-84201000D03*
X98933000Y-84201000D03*
X100203000Y-82931000D03*
X98933000Y-82931000D03*
D20*
X99568000Y-86741000D03*
X98552000Y-81661000D03*
X100584000Y-81661000D03*
D21*
X108077000Y-75888000D03*
X108077000Y-74988000D03*
X108077000Y-76893000D03*
X108077000Y-77793000D03*
X113411000Y-77782000D03*
X113411000Y-78682000D03*
X109220000Y-74988000D03*
X109220000Y-75888000D03*
X112141000Y-77782000D03*
X112141000Y-78682000D03*
X109220000Y-77793000D03*
X109220000Y-76893000D03*
X126365000Y-84640000D03*
X126365000Y-85540000D03*
D22*
X128074000Y-80518000D03*
X128974000Y-80518000D03*
X128974000Y-75184000D03*
X128074000Y-75184000D03*
X126042000Y-79375000D03*
X126942000Y-79375000D03*
D23*
X109290000Y-82697000D03*
X109790000Y-82697000D03*
X110290000Y-82697000D03*
X110790000Y-82697000D03*
D24*
X111515000Y-81972000D03*
X111515000Y-81472000D03*
X111515000Y-80972000D03*
X111515000Y-80472000D03*
D23*
X110790000Y-79747000D03*
X110290000Y-79747000D03*
X109790000Y-79747000D03*
X109290000Y-79747000D03*
D24*
X108565000Y-80472000D03*
X108565000Y-80972000D03*
X108565000Y-81472000D03*
X108565000Y-81972000D03*
D25*
X110490000Y-80772000D03*
X109590000Y-80772000D03*
X110490000Y-81672000D03*
X109590000Y-81672000D03*
D26*
X108204000Y-85344000D03*
X108204000Y-86614000D03*
X110236000Y-85344000D03*
X108204000Y-85979000D03*
X110236000Y-86614000D03*
D27*
X127624000Y-81800000D03*
D21*
X127624000Y-82550000D03*
D27*
X127624000Y-83300000D03*
X129424000Y-83300000D03*
D21*
X129424000Y-82550000D03*
D27*
X129424000Y-81800000D03*
D28*
X116580000Y-85149000D03*
X117380000Y-85149000D03*
X118180000Y-85149000D03*
X118980000Y-85149000D03*
X119780000Y-85149000D03*
X120580000Y-85149000D03*
X121380000Y-85149000D03*
X122180000Y-85149000D03*
D29*
X123630000Y-83699000D03*
X123630000Y-82899000D03*
X123630000Y-82099000D03*
X123630000Y-81299000D03*
X123630000Y-80499000D03*
X123630000Y-79699000D03*
X123630000Y-78899000D03*
X123630000Y-78099000D03*
D28*
X122180000Y-76649000D03*
X121380000Y-76649000D03*
X120580000Y-76649000D03*
X119780000Y-76649000D03*
X118980000Y-76649000D03*
X118180000Y-76649000D03*
X117380000Y-76649000D03*
X116580000Y-76649000D03*
D29*
X115130000Y-78099000D03*
X115130000Y-78899000D03*
X115130000Y-79699000D03*
X115130000Y-80499000D03*
X115130000Y-81299000D03*
X115130000Y-82099000D03*
X115130000Y-82899000D03*
X115130000Y-83699000D03*
D27*
X127624000Y-76593000D03*
D21*
X127624000Y-77343000D03*
D27*
X127624000Y-78093000D03*
X129424000Y-78093000D03*
D21*
X129424000Y-77343000D03*
D27*
X129424000Y-76593000D03*
D30*
X106045000Y-81300000D03*
X106045000Y-83800000D03*
D21*
X112141000Y-85540000D03*
X112141000Y-84640000D03*
X113284000Y-85540000D03*
X113284000Y-84640000D03*
D31*
X99568000Y-74930000D03*
D32*
X99568000Y-77470000D03*
X99568000Y-80010000D03*
M02*
