G04 #@! TF.FileFunction,Soldermask,Top*
%FSLAX46Y46*%
G04 Gerber Fmt 4.6, Leading zero omitted, Abs format (unit mm)*
G04 Created by KiCad (PCBNEW (2016-02-16 BZR 6568, Git 6c5f954)-product) date Sun 21 Feb 2016 12:11:03 PM EST*
%MOMM*%
G01*
G04 APERTURE LIST*
%ADD10C,0.100000*%
%ADD11R,0.500800X0.310800*%
%ADD12R,0.550800X0.650800*%
%ADD13R,1.150800X1.150800*%
%ADD14R,1.300800X1.050800*%
%ADD15R,0.650800X0.550800*%
%ADD16C,0.837800*%
%ADD17C,1.250800*%
%ADD18R,0.650800X0.450800*%
%ADD19R,0.450800X0.650800*%
%ADD20O,0.350800X0.800800*%
%ADD21O,0.800800X0.350800*%
%ADD22R,0.950800X0.950800*%
%ADD23R,0.558800X0.355600*%
%ADD24R,0.650800X0.650800*%
%ADD25R,0.650800X1.250800*%
%ADD26R,1.250800X0.650800*%
%ADD27R,1.950800X1.150800*%
%ADD28R,2.082800X1.778000*%
%ADD29O,2.082800X1.778000*%
G04 APERTURE END LIST*
D10*
D11*
X137626000Y-80292000D03*
X137626000Y-80772000D03*
X137626000Y-81252000D03*
X138726000Y-81252000D03*
X138726000Y-80772000D03*
X138726000Y-80292000D03*
D12*
X137668000Y-77809000D03*
X137668000Y-78909000D03*
D13*
X141173200Y-80772000D03*
X141173200Y-78972000D03*
X141173200Y-82572000D03*
X149073200Y-82572000D03*
X149073200Y-80772000D03*
X149073200Y-78972000D03*
D14*
X102997000Y-76438000D03*
X102997000Y-74438000D03*
D15*
X106976000Y-79375000D03*
X105876000Y-79375000D03*
X127974000Y-84709000D03*
X129074000Y-84709000D03*
X127974000Y-79375000D03*
X129074000Y-79375000D03*
D16*
X100203000Y-85471000D03*
X98933000Y-85471000D03*
X100203000Y-84201000D03*
X98933000Y-84201000D03*
X100203000Y-82931000D03*
X98933000Y-82931000D03*
D17*
X99568000Y-86741000D03*
X98552000Y-81661000D03*
X100584000Y-81661000D03*
D18*
X108077000Y-75888000D03*
X108077000Y-74988000D03*
X108077000Y-76893000D03*
X108077000Y-77793000D03*
X113411000Y-77782000D03*
X113411000Y-78682000D03*
X109220000Y-74988000D03*
X109220000Y-75888000D03*
X112141000Y-77782000D03*
X112141000Y-78682000D03*
X109220000Y-77793000D03*
X109220000Y-76893000D03*
X126365000Y-84640000D03*
X126365000Y-85540000D03*
D19*
X128074000Y-80518000D03*
X128974000Y-80518000D03*
X128974000Y-75184000D03*
X128074000Y-75184000D03*
X126042000Y-79375000D03*
X126942000Y-79375000D03*
D20*
X109290000Y-82697000D03*
X109790000Y-82697000D03*
X110290000Y-82697000D03*
X110790000Y-82697000D03*
D21*
X111515000Y-81972000D03*
X111515000Y-81472000D03*
X111515000Y-80972000D03*
X111515000Y-80472000D03*
D20*
X110790000Y-79747000D03*
X110290000Y-79747000D03*
X109790000Y-79747000D03*
X109290000Y-79747000D03*
D21*
X108565000Y-80472000D03*
X108565000Y-80972000D03*
X108565000Y-81472000D03*
X108565000Y-81972000D03*
D22*
X110490000Y-80772000D03*
X109590000Y-80772000D03*
X110490000Y-81672000D03*
X109590000Y-81672000D03*
D23*
X108204000Y-85344000D03*
X108204000Y-86614000D03*
X110236000Y-85344000D03*
X108204000Y-85979000D03*
X110236000Y-86614000D03*
D24*
X127624000Y-81800000D03*
D18*
X127624000Y-82550000D03*
D24*
X127624000Y-83300000D03*
X129424000Y-83300000D03*
D18*
X129424000Y-82550000D03*
D24*
X129424000Y-81800000D03*
D25*
X116580000Y-85149000D03*
X117380000Y-85149000D03*
X118180000Y-85149000D03*
X118980000Y-85149000D03*
X119780000Y-85149000D03*
X120580000Y-85149000D03*
X121380000Y-85149000D03*
X122180000Y-85149000D03*
D26*
X123630000Y-83699000D03*
X123630000Y-82899000D03*
X123630000Y-82099000D03*
X123630000Y-81299000D03*
X123630000Y-80499000D03*
X123630000Y-79699000D03*
X123630000Y-78899000D03*
X123630000Y-78099000D03*
D25*
X122180000Y-76649000D03*
X121380000Y-76649000D03*
X120580000Y-76649000D03*
X119780000Y-76649000D03*
X118980000Y-76649000D03*
X118180000Y-76649000D03*
X117380000Y-76649000D03*
X116580000Y-76649000D03*
D26*
X115130000Y-78099000D03*
X115130000Y-78899000D03*
X115130000Y-79699000D03*
X115130000Y-80499000D03*
X115130000Y-81299000D03*
X115130000Y-82099000D03*
X115130000Y-82899000D03*
X115130000Y-83699000D03*
D24*
X127624000Y-76593000D03*
D18*
X127624000Y-77343000D03*
D24*
X127624000Y-78093000D03*
X129424000Y-78093000D03*
D18*
X129424000Y-77343000D03*
D24*
X129424000Y-76593000D03*
D27*
X106045000Y-81300000D03*
X106045000Y-83800000D03*
D18*
X112141000Y-85540000D03*
X112141000Y-84640000D03*
X113284000Y-85540000D03*
X113284000Y-84640000D03*
D28*
X99568000Y-74930000D03*
D29*
X99568000Y-77470000D03*
X99568000Y-80010000D03*
M02*
